<svg width="390" height="20" viewBox="0 0 390 20" fill="none" xmlns="http://www.w3.org/2000/svg">
<line x1="0.5" y1="9.44995" x2="176.5" y2="9.44994" stroke="url(#paint0_linear_151_639)" stroke-linecap="round"/>
<path d="M191.64 8.40195C192.6 8.40195 193.363 8.53528 193.928 8.80195C194.504 9.06862 194.915 9.50595 195.16 10.114C195.416 10.722 195.544 11.5273 195.544 12.53C195.544 13.5326 195.416 14.338 195.16 14.946C194.915 15.5433 194.504 15.9806 193.928 16.258C193.363 16.5246 192.6 16.658 191.64 16.658C190.701 16.658 189.944 16.5246 189.368 16.258C188.803 15.9806 188.392 15.5433 188.136 14.946C187.88 14.338 187.752 13.5326 187.752 12.53C187.752 11.5273 187.88 10.722 188.136 10.114C188.392 9.50595 188.803 9.06862 189.368 8.80195C189.944 8.53528 190.701 8.40195 191.64 8.40195ZM191.64 9.87395C191.171 9.87395 190.797 9.95395 190.52 10.114C190.253 10.2633 190.061 10.53 189.944 10.914C189.827 11.298 189.768 11.8366 189.768 12.53C189.768 13.2233 189.827 13.762 189.944 14.146C190.061 14.53 190.253 14.7966 190.52 14.946C190.797 15.0953 191.171 15.17 191.64 15.17C192.12 15.17 192.499 15.0953 192.776 14.946C193.053 14.7966 193.245 14.53 193.352 14.146C193.469 13.762 193.528 13.2233 193.528 12.53C193.528 11.8366 193.469 11.298 193.352 10.914C193.245 10.53 193.053 10.2633 192.776 10.114C192.499 9.95395 192.12 9.87395 191.64 9.87395ZM198.873 8.59395L199.129 10.13L199.305 10.354V16.45H197.369V8.59395H198.873ZM202.713 8.40195L202.521 10.194H201.961C201.545 10.194 201.124 10.2633 200.697 10.402C200.271 10.5406 199.737 10.7486 199.097 11.026L198.969 9.88995C199.524 9.42062 200.089 9.05795 200.665 8.80195C201.241 8.53528 201.796 8.40195 202.329 8.40195H202.713Z" fill="#4F4E4E"/>
<line x1="0.5" y1="-0.5" x2="176.5" y2="-0.5" transform="matrix(-1 -8.74228e-08 -8.74228e-08 1 390 9.94995)" stroke="url(#paint1_linear_151_639)" stroke-linecap="round"/>
<defs>
<linearGradient id="paint0_linear_151_639" x1="-23.895" y1="9.94995" x2="309.75" y2="9.94987" gradientUnits="userSpaceOnUse">
<stop stop-color="#4F4E4E" stop-opacity="0"/>
<stop offset="1" stop-color="#4F4E4E"/>
</linearGradient>
<linearGradient id="paint1_linear_151_639" x1="-23.895" y1="1.2415e-06" x2="309.75" y2="-5.30676e-05" gradientUnits="userSpaceOnUse">
<stop stop-color="#4F4E4E" stop-opacity="0"/>
<stop offset="1" stop-color="#4F4E4E"/>
</linearGradient>
</defs>
</svg>
